<?xml version="1.0" encoding="UTF-8"?>
<svg version="1.1" xmlns="http://www.w3.org/2000/svg" width="16" height="16">
<path d="M0 0 C-0.3125 1.9375 -0.3125 1.9375 -1 4 C-1.99 4.33 -2.98 4.66 -4 5 C-2.35 5.33 -0.7 5.66 1 6 C1 9.3 1 12.6 1 16 C-1.47923801 16.02685095 -3.9581884 16.04676547 -6.4375 16.0625 C-7.14455078 16.07087891 -7.85160156 16.07925781 -8.58007812 16.08789062 C-10.38693559 16.09653588 -12.19387603 16.05220011 -14 16 C-15 15 -15 15 -15.09765625 12.49609375 C-15.08605469 11.48675781 -15.07445312 10.47742188 -15.0625 9.4375 C-15.05347656 8.42558594 -15.04445313 7.41367188 -15.03515625 6.37109375 C-15.02355469 5.58863281 -15.01195312 4.80617188 -15 4 C-13.25307205 3.32532438 -11.50231475 2.66055844 -9.75 2 C-8.77546875 1.62875 -7.8009375 1.2575 -6.796875 0.875 C-4 0 -4 0 0 0 Z " fill="#5DA0F9" transform="translate(15,0)"/>
<path d="M0 0 C-0.33 1.32 -0.66 2.64 -1 4 C-3.8125 4.6875 -3.8125 4.6875 -7 5 C-8.875 3.5625 -8.875 3.5625 -10 2 C-6.38026598 0.68373308 -3.90432869 0 0 0 Z " fill="#868A96" transform="translate(15,0)"/>
<path d="M0 0 C2.97 0.495 2.97 0.495 6 1 C6.33 1.99 6.66 2.98 7 4 C6.67 4.66 6.34 5.32 6 6 C5.01 6 4.02 6 3 6 C3 4.68 3 3.36 3 2 C2.01 1.67 1.02 1.34 0 1 C0 0.67 0 0.34 0 0 Z " fill="#AFBCDC" transform="translate(2,3)"/>
<path d="M0 0 C2.475 0.495 2.475 0.495 5 1 C4.67 2.32 4.34 3.64 4 5 C2.68 4.67 1.36 4.34 0 4 C0 2.68 0 1.36 0 0 Z " fill="#8E8269" transform="translate(0,4)"/>
<path d="M0 0 C2.64 0 5.28 0 8 0 C8 0.66 8 1.32 8 2 C5.36 2.33 2.72 2.66 0 3 C0 2.01 0 1.02 0 0 Z " fill="#5892D9" transform="translate(2,11)"/>
<path d="M0 0 C2.31 0 4.62 0 7 0 C7 0.99 7 1.98 7 3 C6.236875 2.814375 5.47375 2.62875 4.6875 2.4375 C1.91032625 1.77180827 1.91032625 1.77180827 -1 3 C-0.67 2.01 -0.34 1.02 0 0 Z " fill="#6E7C93" transform="translate(9,6)"/>
</svg>
